# Blender v2.83.0 OBJ File: ''
# www.blender.org
mtllib colon.mtl
o Text
v 0.109000 0.000000 -0.458000
v 0.100887 0.000000 -0.457450
v 0.093097 0.000000 -0.455847
v 0.085703 0.000000 -0.453266
v 0.078778 0.000000 -0.449778
v 0.072394 0.000000 -0.445457
v 0.066625 0.000000 -0.440375
v 0.061543 0.000000 -0.434606
v 0.057222 0.000000 -0.428222
v 0.053734 0.000000 -0.421297
v 0.051153 0.000000 -0.413903
v 0.049550 0.000000 -0.406113
v 0.049000 0.000000 -0.398000
v 0.049550 0.000000 -0.389887
v 0.051153 0.000000 -0.382097
v 0.053734 0.000000 -0.374703
v 0.057222 0.000000 -0.367778
v 0.061543 0.000000 -0.361394
v 0.066625 0.000000 -0.355625
v 0.072394 0.000000 -0.350543
v 0.078778 0.000000 -0.346222
v 0.085703 0.000000 -0.342734
v 0.093097 0.000000 -0.340153
v 0.100887 0.000000 -0.338550
v 0.109000 0.000000 -0.338000
v 0.117113 0.000000 -0.338550
v 0.124903 0.000000 -0.340153
v 0.132297 0.000000 -0.342734
v 0.139222 0.000000 -0.346222
v 0.145606 0.000000 -0.350543
v 0.151375 0.000000 -0.355625
v 0.156457 0.000000 -0.361394
v 0.160778 0.000000 -0.367778
v 0.164266 0.000000 -0.374703
v 0.166847 0.000000 -0.382097
v 0.168450 0.000000 -0.389887
v 0.169000 0.000000 -0.398000
v 0.168450 0.000000 -0.406113
v 0.166847 0.000000 -0.413903
v 0.164266 0.000000 -0.421297
v 0.160778 0.000000 -0.428222
v 0.156457 0.000000 -0.434606
v 0.151375 0.000000 -0.440375
v 0.145606 0.000000 -0.445457
v 0.139222 0.000000 -0.449778
v 0.132297 0.000000 -0.453266
v 0.124903 0.000000 -0.455847
v 0.117113 0.000000 -0.457450
v 0.109000 0.000000 -0.111000
v 0.100887 0.000000 -0.110450
v 0.093097 0.000000 -0.108847
v 0.085703 0.000000 -0.106266
v 0.078778 0.000000 -0.102778
v 0.072394 0.000000 -0.098457
v 0.066625 0.000000 -0.093375
v 0.061543 0.000000 -0.087606
v 0.057222 0.000000 -0.081222
v 0.053734 0.000000 -0.074297
v 0.051153 0.000000 -0.066903
v 0.049550 0.000000 -0.059113
v 0.049000 0.000000 -0.051000
v 0.049550 0.000000 -0.042887
v 0.051153 0.000000 -0.035097
v 0.053734 0.000000 -0.027703
v 0.057222 0.000000 -0.020778
v 0.061543 0.000000 -0.014394
v 0.066625 0.000000 -0.008625
v 0.072394 0.000000 -0.003543
v 0.078778 0.000000 0.000778
v 0.085703 0.000000 0.004266
v 0.093097 0.000000 0.006847
v 0.100887 0.000000 0.008450
v 0.109000 0.000000 0.009000
v 0.117113 0.000000 0.008450
v 0.124903 0.000000 0.006847
v 0.132297 0.000000 0.004266
v 0.139222 0.000000 0.000778
v 0.145606 0.000000 -0.003543
v 0.151375 0.000000 -0.008625
v 0.156457 0.000000 -0.014394
v 0.160778 0.000000 -0.020778
v 0.164266 0.000000 -0.027703
v 0.166847 0.000000 -0.035097
v 0.168450 0.000000 -0.042887
v 0.169000 0.000000 -0.051000
v 0.168450 0.000000 -0.059113
v 0.166847 0.000000 -0.066903
v 0.164266 0.000000 -0.074297
v 0.160778 0.000000 -0.081222
v 0.156457 0.000000 -0.087606
v 0.151375 0.000000 -0.093375
v 0.145606 0.000000 -0.098457
v 0.139222 0.000000 -0.102778
v 0.132297 0.000000 -0.106266
v 0.124903 0.000000 -0.108847
v 0.117113 0.000000 -0.110450
vt 0.515789 0.000000
vt 1.000000 0.000000
vt 0.505263 0.000000
vt 0.526316 0.000000
vt 0.989474 0.000000
vt 0.536842 0.000000
vt 0.978947 0.000000
vt 0.547368 0.000000
vt 0.968421 0.000000
vt 0.557895 0.000000
vt 0.957895 0.000000
vt 0.568421 0.000000
vt 0.947368 0.000000
vt 0.578947 0.000000
vt 0.936842 0.000000
vt 0.589474 0.000000
vt 0.926316 0.000000
vt 0.600000 0.000000
vt 0.915789 0.000000
vt 0.610526 0.000000
vt 0.905263 0.000000
vt 0.621053 0.000000
vt 0.894737 0.000000
vt 0.884211 0.000000
vt 0.631579 0.000000
vt 0.642105 0.000000
vt 0.873684 0.000000
vt 0.652632 0.000000
vt 0.863158 0.000000
vt 0.663158 0.000000
vt 0.852632 0.000000
vt 0.673684 0.000000
vt 0.842105 0.000000
vt 0.684211 0.000000
vt 0.831579 0.000000
vt 0.694737 0.000000
vt 0.821053 0.000000
vt 0.705263 0.000000
vt 0.810526 0.000000
vt 0.715789 0.000000
vt 0.800000 0.000000
vt 0.726316 0.000000
vt 0.789474 0.000000
vt 0.736842 0.000000
vt 0.778947 0.000000
vt 0.747368 0.000000
vt 0.768421 0.000000
vt 0.757895 0.000000
vt 0.010526 0.000000
vt 0.494737 0.000000
vt 0.000000 0.000000
vt 0.484211 0.000000
vt 0.021053 0.000000
vt 0.473684 0.000000
vt 0.031579 0.000000
vt 0.463158 0.000000
vt 0.042105 0.000000
vt 0.452632 0.000000
vt 0.052632 0.000000
vt 0.442105 0.000000
vt 0.063158 0.000000
vt 0.431579 0.000000
vt 0.073684 0.000000
vt 0.421053 0.000000
vt 0.084211 0.000000
vt 0.410526 0.000000
vt 0.094737 0.000000
vt 0.400000 0.000000
vt 0.105263 0.000000
vt 0.389474 0.000000
vt 0.115789 0.000000
vt 0.378947 0.000000
vt 0.126316 0.000000
vt 0.136842 0.000000
vt 0.368421 0.000000
vt 0.357895 0.000000
vt 0.147368 0.000000
vt 0.347368 0.000000
vt 0.157895 0.000000
vt 0.336842 0.000000
vt 0.168421 0.000000
vt 0.326316 0.000000
vt 0.178947 0.000000
vt 0.315789 0.000000
vt 0.189474 0.000000
vt 0.305263 0.000000
vt 0.200000 0.000000
vt 0.294737 0.000000
vt 0.210526 0.000000
vt 0.284211 0.000000
vt 0.221053 0.000000
vt 0.273684 0.000000
vt 0.231579 0.000000
vt 0.263158 0.000000
vt 0.242105 0.000000
vt 0.252632 0.000000
vn 0.0000 1.0000 0.0000
g Text_Text_Material.001
usemtl Material.001
s off
f 50/1/1 96/2/1 49/3/1
f 51/4/1 96/2/1 50/1/1
f 51/4/1 95/5/1 96/2/1
f 52/6/1 95/5/1 51/4/1
f 52/6/1 94/7/1 95/5/1
f 53/8/1 94/7/1 52/6/1
f 53/8/1 93/9/1 94/7/1
f 54/10/1 93/9/1 53/8/1
f 54/10/1 92/11/1 93/9/1
f 55/12/1 92/11/1 54/10/1
f 55/12/1 91/13/1 92/11/1
f 56/14/1 91/13/1 55/12/1
f 56/14/1 90/15/1 91/13/1
f 57/16/1 90/15/1 56/14/1
f 57/16/1 89/17/1 90/15/1
f 58/18/1 89/17/1 57/16/1
f 58/18/1 88/19/1 89/17/1
f 59/20/1 88/19/1 58/18/1
f 59/20/1 87/21/1 88/19/1
f 60/22/1 87/21/1 59/20/1
f 60/22/1 86/23/1 87/21/1
f 60/22/1 85/24/1 86/23/1
f 61/25/1 85/24/1 60/22/1
f 62/26/1 85/24/1 61/25/1
f 62/26/1 84/27/1 85/24/1
f 63/28/1 84/27/1 62/26/1
f 63/28/1 83/29/1 84/27/1
f 64/30/1 83/29/1 63/28/1
f 64/30/1 82/31/1 83/29/1
f 65/32/1 82/31/1 64/30/1
f 65/32/1 81/33/1 82/31/1
f 66/34/1 81/33/1 65/32/1
f 66/34/1 80/35/1 81/33/1
f 67/36/1 80/35/1 66/34/1
f 67/36/1 79/37/1 80/35/1
f 68/38/1 79/37/1 67/36/1
f 68/38/1 78/39/1 79/37/1
f 69/40/1 78/39/1 68/38/1
f 69/40/1 77/41/1 78/39/1
f 70/42/1 77/41/1 69/40/1
f 70/42/1 76/43/1 77/41/1
f 71/44/1 76/43/1 70/42/1
f 71/44/1 75/45/1 76/43/1
f 72/46/1 75/45/1 71/44/1
f 72/46/1 74/47/1 75/45/1
f 73/48/1 74/47/1 72/46/1
f 2/49/1 48/50/1 1/51/1
f 2/49/1 47/52/1 48/50/1
f 3/53/1 47/52/1 2/49/1
f 3/53/1 46/54/1 47/52/1
f 4/55/1 46/54/1 3/53/1
f 4/55/1 45/56/1 46/54/1
f 5/57/1 45/56/1 4/55/1
f 5/57/1 44/58/1 45/56/1
f 6/59/1 44/58/1 5/57/1
f 6/59/1 43/60/1 44/58/1
f 7/61/1 43/60/1 6/59/1
f 7/61/1 42/62/1 43/60/1
f 8/63/1 42/62/1 7/61/1
f 8/63/1 41/64/1 42/62/1
f 9/65/1 41/64/1 8/63/1
f 9/65/1 40/66/1 41/64/1
f 10/67/1 40/66/1 9/65/1
f 10/67/1 39/68/1 40/66/1
f 11/69/1 39/68/1 10/67/1
f 11/69/1 38/70/1 39/68/1
f 12/71/1 38/70/1 11/69/1
f 12/71/1 37/72/1 38/70/1
f 13/73/1 37/72/1 12/71/1
f 14/74/1 37/72/1 13/73/1
f 14/74/1 36/75/1 37/72/1
f 14/74/1 35/76/1 36/75/1
f 15/77/1 35/76/1 14/74/1
f 15/77/1 34/78/1 35/76/1
f 16/79/1 34/78/1 15/77/1
f 16/79/1 33/80/1 34/78/1
f 17/81/1 33/80/1 16/79/1
f 17/81/1 32/82/1 33/80/1
f 18/83/1 32/82/1 17/81/1
f 18/83/1 31/84/1 32/82/1
f 19/85/1 31/84/1 18/83/1
f 19/85/1 30/86/1 31/84/1
f 20/87/1 30/86/1 19/85/1
f 20/87/1 29/88/1 30/86/1
f 21/89/1 29/88/1 20/87/1
f 21/89/1 28/90/1 29/88/1
f 22/91/1 28/90/1 21/89/1
f 22/91/1 27/92/1 28/90/1
f 23/93/1 27/92/1 22/91/1
f 23/93/1 26/94/1 27/92/1
f 24/95/1 26/94/1 23/93/1
f 24/95/1 25/96/1 26/94/1
