# Blender v2.83.0 OBJ File: ''
# www.blender.org
mtllib n3.mtl
o Text
v 0.081000 0.000000 -0.569000
v 0.092449 0.000000 -0.573982
v 0.103343 0.000000 -0.578440
v 0.113750 0.000000 -0.582391
v 0.123741 0.000000 -0.585852
v 0.133384 0.000000 -0.588841
v 0.142750 0.000000 -0.591375
v 0.151907 0.000000 -0.593472
v 0.160926 0.000000 -0.595148
v 0.169875 0.000000 -0.596422
v 0.178824 0.000000 -0.597310
v 0.187843 0.000000 -0.597830
v 0.197000 0.000000 -0.598000
v 0.214447 0.000000 -0.597196
v 0.230741 0.000000 -0.594819
v 0.245813 0.000000 -0.590922
v 0.259593 0.000000 -0.585556
v 0.272012 0.000000 -0.578773
v 0.283000 0.000000 -0.570625
v 0.292488 0.000000 -0.561165
v 0.300407 0.000000 -0.550444
v 0.306688 0.000000 -0.538516
v 0.311259 0.000000 -0.525431
v 0.314053 0.000000 -0.511241
v 0.315000 0.000000 -0.496000
v 0.314063 0.000000 -0.481028
v 0.311250 0.000000 -0.467139
v 0.306563 0.000000 -0.454375
v 0.300000 0.000000 -0.442778
v 0.291563 0.000000 -0.432389
v 0.281250 0.000000 -0.423250
v 0.269063 0.000000 -0.415403
v 0.255000 0.000000 -0.408889
v 0.239063 0.000000 -0.403750
v 0.221250 0.000000 -0.400028
v 0.201563 0.000000 -0.397764
v 0.180000 0.000000 -0.397000
v 0.180000 0.000000 -0.307000
v 0.203249 0.000000 -0.307087
v 0.224495 0.000000 -0.304944
v 0.243734 0.000000 -0.300719
v 0.260963 0.000000 -0.294556
v 0.276178 0.000000 -0.286601
v 0.289375 0.000000 -0.277000
v 0.300552 0.000000 -0.265899
v 0.309704 0.000000 -0.253444
v 0.316828 0.000000 -0.239781
v 0.321921 0.000000 -0.225056
v 0.324980 0.000000 -0.209413
v 0.326000 0.000000 -0.193000
v 0.325115 0.000000 -0.176991
v 0.322505 0.000000 -0.162009
v 0.318234 0.000000 -0.148125
v 0.312370 0.000000 -0.135407
v 0.304979 0.000000 -0.123926
v 0.296125 0.000000 -0.113750
v 0.285876 0.000000 -0.104949
v 0.274296 0.000000 -0.097593
v 0.261453 0.000000 -0.091750
v 0.247412 0.000000 -0.087491
v 0.232239 0.000000 -0.084884
v 0.216000 0.000000 -0.084000
v 0.203499 0.000000 -0.084355
v 0.190991 0.000000 -0.085421
v 0.178469 0.000000 -0.087203
v 0.165926 0.000000 -0.089704
v 0.153355 0.000000 -0.092927
v 0.140750 0.000000 -0.096875
v 0.128103 0.000000 -0.101553
v 0.115407 0.000000 -0.106963
v 0.102656 0.000000 -0.113109
v 0.089843 0.000000 -0.119995
v 0.076959 0.000000 -0.127624
v 0.064000 0.000000 -0.136000
v 0.064000 0.000000 -0.030000
v 0.076249 0.000000 -0.023981
v 0.088491 0.000000 -0.018431
v 0.100719 0.000000 -0.013359
v 0.112926 0.000000 -0.008778
v 0.125105 0.000000 -0.004696
v 0.137250 0.000000 -0.001125
v 0.149353 0.000000 0.001925
v 0.161407 0.000000 0.004444
v 0.173406 0.000000 0.006422
v 0.185343 0.000000 0.007847
v 0.197210 0.000000 0.008710
v 0.209000 0.000000 0.009000
v 0.239699 0.000000 0.007257
v 0.268676 0.000000 0.002139
v 0.295750 0.000000 -0.006188
v 0.320741 0.000000 -0.017556
v 0.343468 0.000000 -0.031799
v 0.363750 0.000000 -0.048750
v 0.381407 0.000000 -0.068243
v 0.396259 0.000000 -0.090111
v 0.408125 0.000000 -0.114188
v 0.416824 0.000000 -0.140306
v 0.422176 0.000000 -0.168299
v 0.424000 0.000000 -0.198000
v 0.423370 0.000000 -0.215491
v 0.421463 0.000000 -0.232847
v 0.418250 0.000000 -0.249891
v 0.413704 0.000000 -0.266444
v 0.407796 0.000000 -0.282332
v 0.400500 0.000000 -0.297375
v 0.391787 0.000000 -0.311398
v 0.381630 0.000000 -0.324222
v 0.370000 0.000000 -0.335672
v 0.356870 0.000000 -0.345569
v 0.342213 0.000000 -0.353738
v 0.326000 0.000000 -0.360000
v 0.340736 0.000000 -0.368701
v 0.353972 0.000000 -0.377861
v 0.365750 0.000000 -0.387563
v 0.376111 0.000000 -0.397889
v 0.385097 0.000000 -0.408924
v 0.392750 0.000000 -0.420750
v 0.399111 0.000000 -0.433451
v 0.404222 0.000000 -0.447111
v 0.408125 0.000000 -0.461813
v 0.410861 0.000000 -0.477639
v 0.412472 0.000000 -0.494674
v 0.413000 0.000000 -0.513000
v 0.411375 0.000000 -0.539190
v 0.406583 0.000000 -0.563685
v 0.398750 0.000000 -0.586375
v 0.388000 0.000000 -0.607148
v 0.374458 0.000000 -0.625894
v 0.358250 0.000000 -0.642500
v 0.339500 0.000000 -0.656857
v 0.318333 0.000000 -0.668852
v 0.294875 0.000000 -0.678375
v 0.269250 0.000000 -0.685315
v 0.241583 0.000000 -0.689560
v 0.212000 0.000000 -0.691000
v 0.199492 0.000000 -0.690811
v 0.187435 0.000000 -0.690241
v 0.175781 0.000000 -0.689281
v 0.164482 0.000000 -0.687926
v 0.153487 0.000000 -0.686168
v 0.142750 0.000000 -0.684000
v 0.132221 0.000000 -0.681415
v 0.121852 0.000000 -0.678407
v 0.111594 0.000000 -0.674969
v 0.101398 0.000000 -0.671093
v 0.091216 0.000000 -0.666772
v 0.081000 0.000000 -0.662000
vt 0.924658 0.000000
vt 0.910959 0.000000
vt 0.917808 0.000000
vt 0.931507 0.000000
vt 0.938356 0.000000
vt 0.904110 0.000000
vt 0.945205 0.000000
vt 0.952055 0.000000
vt 0.958904 0.000000
vt 0.897260 0.000000
vt 0.965753 0.000000
vt 0.972603 0.000000
vt 0.979452 0.000000
vt 0.890411 0.000000
vt 0.986301 0.000000
vt 0.993151 0.000000
vt 0.883562 0.000000
vt 1.000000 0.000000
vt 0.000000 0.000000
vt 0.006849 0.000000
vt 0.013699 0.000000
vt 0.020548 0.000000
vt 0.027397 0.000000
vt 0.034247 0.000000
vt 0.041096 0.000000
vt 0.876712 0.000000
vt 0.047945 0.000000
vt 0.054795 0.000000
vt 0.869863 0.000000
vt 0.061644 0.000000
vt 0.068493 0.000000
vt 0.075342 0.000000
vt 0.863014 0.000000
vt 0.082192 0.000000
vt 0.089041 0.000000
vt 0.856164 0.000000
vt 0.095890 0.000000
vt 0.102740 0.000000
vt 0.109589 0.000000
vt 0.849315 0.000000
vt 0.116438 0.000000
vt 0.123288 0.000000
vt 0.130137 0.000000
vt 0.842466 0.000000
vt 0.136986 0.000000
vt 0.143836 0.000000
vt 0.835616 0.000000
vt 0.150685 0.000000
vt 0.157534 0.000000
vt 0.828767 0.000000
vt 0.164384 0.000000
vt 0.171233 0.000000
vt 0.821918 0.000000
vt 0.178082 0.000000
vt 0.815068 0.000000
vt 0.184932 0.000000
vt 0.808219 0.000000
vt 0.191781 0.000000
vt 0.801370 0.000000
vt 0.198630 0.000000
vt 0.794521 0.000000
vt 0.205479 0.000000
vt 0.212329 0.000000
vt 0.787671 0.000000
vt 0.219178 0.000000
vt 0.780822 0.000000
vt 0.226027 0.000000
vt 0.232877 0.000000
vt 0.239726 0.000000
vt 0.773973 0.000000
vt 0.246575 0.000000
vt 0.253425 0.000000
vt 0.767123 0.000000
vt 0.760274 0.000000
vt 0.753425 0.000000
vt 0.746575 0.000000
vt 0.739726 0.000000
vt 0.732877 0.000000
vt 0.726027 0.000000
vt 0.719178 0.000000
vt 0.260274 0.000000
vt 0.712329 0.000000
vt 0.267123 0.000000
vt 0.273973 0.000000
vt 0.280822 0.000000
vt 0.705479 0.000000
vt 0.287671 0.000000
vt 0.294521 0.000000
vt 0.698630 0.000000
vt 0.301370 0.000000
vt 0.691781 0.000000
vt 0.308219 0.000000
vt 0.315068 0.000000
vt 0.684932 0.000000
vt 0.321918 0.000000
vt 0.678082 0.000000
vt 0.328767 0.000000
vt 0.671233 0.000000
vt 0.335616 0.000000
vt 0.664384 0.000000
vt 0.342466 0.000000
vt 0.349315 0.000000
vt 0.657534 0.000000
vt 0.356164 0.000000
vt 0.363014 0.000000
vt 0.650685 0.000000
vt 0.506849 0.000000
vt 0.493151 0.000000
vt 0.500000 0.000000
vt 0.369863 0.000000
vt 0.486301 0.000000
vt 0.376712 0.000000
vt 0.479452 0.000000
vt 0.643836 0.000000
vt 0.383562 0.000000
vt 0.472603 0.000000
vt 0.465753 0.000000
vt 0.390411 0.000000
vt 0.458904 0.000000
vt 0.397260 0.000000
vt 0.452055 0.000000
vt 0.445205 0.000000
vt 0.404110 0.000000
vt 0.636986 0.000000
vt 0.438356 0.000000
vt 0.410959 0.000000
vt 0.431507 0.000000
vt 0.424658 0.000000
vt 0.417808 0.000000
vt 0.630137 0.000000
vt 0.623288 0.000000
vt 0.616438 0.000000
vt 0.513699 0.000000
vt 0.520548 0.000000
vt 0.527397 0.000000
vt 0.609589 0.000000
vt 0.534247 0.000000
vt 0.541096 0.000000
vt 0.602740 0.000000
vt 0.547945 0.000000
vt 0.554795 0.000000
vt 0.561644 0.000000
vt 0.595890 0.000000
vt 0.568493 0.000000
vt 0.575342 0.000000
vt 0.589041 0.000000
vt 0.582192 0.000000
vn 0.0000 1.0000 0.0000
g Text_Text_Material.001
usemtl Material.001
s off
f 136/1/1 134/2/1 135/3/1
f 137/4/1 134/2/1 136/1/1
f 138/5/1 134/2/1 137/4/1
f 138/5/1 133/6/1 134/2/1
f 139/7/1 133/6/1 138/5/1
f 140/8/1 133/6/1 139/7/1
f 141/9/1 133/6/1 140/8/1
f 141/9/1 132/10/1 133/6/1
f 142/11/1 132/10/1 141/9/1
f 143/12/1 132/10/1 142/11/1
f 144/13/1 132/10/1 143/12/1
f 144/13/1 131/14/1 132/10/1
f 145/15/1 131/14/1 144/13/1
f 146/16/1 131/14/1 145/15/1
f 146/16/1 130/17/1 131/14/1
f 147/18/1 130/17/1 146/16/1
f 1/19/1 2/20/1 147/18/1
f 2/20/1 3/21/1 147/18/1
f 3/21/1 4/22/1 147/18/1
f 4/22/1 5/23/1 147/18/1
f 5/23/1 130/17/1 147/18/1
f 5/23/1 6/24/1 130/17/1
f 6/24/1 7/25/1 130/17/1
f 7/25/1 129/26/1 130/17/1
f 7/25/1 8/27/1 129/26/1
f 8/27/1 9/28/1 129/26/1
f 9/28/1 128/29/1 129/26/1
f 9/28/1 10/30/1 128/29/1
f 10/30/1 11/31/1 128/29/1
f 11/31/1 12/32/1 128/29/1
f 12/32/1 127/33/1 128/29/1
f 12/32/1 13/34/1 127/33/1
f 13/34/1 14/35/1 127/33/1
f 14/35/1 126/36/1 127/33/1
f 15/37/1 126/36/1 14/35/1
f 16/38/1 126/36/1 15/37/1
f 17/39/1 126/36/1 16/38/1
f 17/39/1 125/40/1 126/36/1
f 18/41/1 125/40/1 17/39/1
f 19/42/1 125/40/1 18/41/1
f 20/43/1 125/40/1 19/42/1
f 20/43/1 124/44/1 125/40/1
f 21/45/1 124/44/1 20/43/1
f 22/46/1 124/44/1 21/45/1
f 22/46/1 123/47/1 124/44/1
f 23/48/1 123/47/1 22/46/1
f 24/49/1 123/47/1 23/48/1
f 24/49/1 122/50/1 123/47/1
f 25/51/1 122/50/1 24/49/1
f 26/52/1 122/50/1 25/51/1
f 26/52/1 121/53/1 122/50/1
f 27/54/1 121/53/1 26/52/1
f 27/54/1 120/55/1 121/53/1
f 28/56/1 120/55/1 27/54/1
f 28/56/1 119/57/1 120/55/1
f 29/58/1 119/57/1 28/56/1
f 29/58/1 118/59/1 119/57/1
f 30/60/1 118/59/1 29/58/1
f 30/60/1 117/61/1 118/59/1
f 31/62/1 117/61/1 30/60/1
f 32/63/1 117/61/1 31/62/1
f 32/63/1 116/64/1 117/61/1
f 33/65/1 116/64/1 32/63/1
f 33/65/1 115/66/1 116/64/1
f 34/67/1 115/66/1 33/65/1
f 35/68/1 115/66/1 34/67/1
f 36/69/1 115/66/1 35/68/1
f 36/69/1 114/70/1 115/66/1
f 37/71/1 114/70/1 36/69/1
f 38/72/1 114/70/1 37/71/1
f 38/72/1 113/73/1 114/70/1
f 38/72/1 112/74/1 113/73/1
f 38/72/1 111/75/1 112/74/1
f 38/72/1 110/76/1 111/75/1
f 38/72/1 109/77/1 110/76/1
f 38/72/1 108/78/1 109/77/1
f 38/72/1 107/79/1 108/78/1
f 38/72/1 106/80/1 107/79/1
f 38/72/1 39/81/1 106/80/1
f 39/81/1 105/82/1 106/80/1
f 40/83/1 105/82/1 39/81/1
f 41/84/1 105/82/1 40/83/1
f 42/85/1 105/82/1 41/84/1
f 42/85/1 104/86/1 105/82/1
f 43/87/1 104/86/1 42/85/1
f 44/88/1 104/86/1 43/87/1
f 44/88/1 103/89/1 104/86/1
f 45/90/1 103/89/1 44/88/1
f 45/90/1 102/91/1 103/89/1
f 46/92/1 102/91/1 45/90/1
f 47/93/1 102/91/1 46/92/1
f 47/93/1 101/94/1 102/91/1
f 48/95/1 101/94/1 47/93/1
f 48/95/1 100/96/1 101/94/1
f 49/97/1 100/96/1 48/95/1
f 49/97/1 99/98/1 100/96/1
f 50/99/1 99/98/1 49/97/1
f 50/99/1 98/100/1 99/98/1
f 51/101/1 98/100/1 50/99/1
f 52/102/1 98/100/1 51/101/1
f 52/102/1 97/103/1 98/100/1
f 53/104/1 97/103/1 52/102/1
f 54/105/1 97/103/1 53/104/1
f 54/105/1 96/106/1 97/103/1
f 75/107/1 73/108/1 74/109/1
f 55/110/1 96/106/1 54/105/1
f 75/107/1 72/111/1 73/108/1
f 56/112/1 96/106/1 55/110/1
f 75/107/1 71/113/1 72/111/1
f 56/112/1 95/114/1 96/106/1
f 57/115/1 95/114/1 56/112/1
f 75/107/1 70/116/1 71/113/1
f 75/107/1 69/117/1 70/116/1
f 58/118/1 95/114/1 57/115/1
f 75/107/1 68/119/1 69/117/1
f 59/120/1 95/114/1 58/118/1
f 75/107/1 67/121/1 68/119/1
f 75/107/1 66/122/1 67/121/1
f 60/123/1 95/114/1 59/120/1
f 60/123/1 94/124/1 95/114/1
f 75/107/1 65/125/1 66/122/1
f 61/126/1 94/124/1 60/123/1
f 75/107/1 64/127/1 65/125/1
f 75/107/1 63/128/1 64/127/1
f 62/129/1 94/124/1 61/126/1
f 75/107/1 62/129/1 63/128/1
f 75/107/1 94/124/1 62/129/1
f 75/107/1 93/130/1 94/124/1
f 75/107/1 92/131/1 93/130/1
f 75/107/1 91/132/1 92/131/1
f 76/133/1 91/132/1 75/107/1
f 77/134/1 91/132/1 76/133/1
f 78/135/1 91/132/1 77/134/1
f 78/135/1 90/136/1 91/132/1
f 79/137/1 90/136/1 78/135/1
f 80/138/1 90/136/1 79/137/1
f 80/138/1 89/139/1 90/136/1
f 81/140/1 89/139/1 80/138/1
f 82/141/1 89/139/1 81/140/1
f 83/142/1 89/139/1 82/141/1
f 83/142/1 88/143/1 89/139/1
f 84/144/1 88/143/1 83/142/1
f 85/145/1 88/143/1 84/144/1
f 85/145/1 87/146/1 88/143/1
f 86/147/1 87/146/1 85/145/1
