# Blender v2.83.0 OBJ File: ''
# www.blender.org
mtllib n7.mtl
o Text
v 0.490000 0.000000 -0.682000
v 0.049000 0.000000 -0.682000
v 0.049000 0.000000 -0.589000
v 0.344000 0.000000 -0.589000
v 0.094000 0.000000 -0.029000
v 0.181000 0.000000 0.009000
vt 0.400000 0.000000
vt 0.000000 0.000000
vt 0.200000 0.000000
vt 0.600000 0.000000
vt 1.000000 0.000000
vt 0.800000 0.000000
vn 0.0000 1.0000 0.0000
g Text_Text_Material.001
usemtl Material.001
s off
f 3/1/1 1/2/1 2/3/1
f 3/1/1 4/4/1 1/2/1
f 4/4/1 6/5/1 1/2/1
f 5/6/1 6/5/1 4/4/1
