# Blender v2.83.0 OBJ File: ''
# www.blender.org
mtllib n8.mtl
o Text
v 0.468000 0.000000 -0.184000
v 0.467334 0.000000 -0.201091
v 0.465338 0.000000 -0.217815
v 0.462016 0.000000 -0.234094
v 0.457370 0.000000 -0.249852
v 0.451406 0.000000 -0.265013
v 0.444125 0.000000 -0.279500
v 0.435532 0.000000 -0.293237
v 0.425630 0.000000 -0.306148
v 0.414422 0.000000 -0.318156
v 0.401912 0.000000 -0.329185
v 0.388104 0.000000 -0.339159
v 0.373000 0.000000 -0.348000
v 0.386856 0.000000 -0.357862
v 0.399435 0.000000 -0.368394
v 0.410750 0.000000 -0.379516
v 0.420815 0.000000 -0.391148
v 0.429644 0.000000 -0.403211
v 0.437250 0.000000 -0.415625
v 0.443648 0.000000 -0.428310
v 0.448852 0.000000 -0.441185
v 0.452875 0.000000 -0.454172
v 0.455731 0.000000 -0.467190
v 0.457435 0.000000 -0.480159
v 0.458000 0.000000 -0.493000
v 0.456241 0.000000 -0.520634
v 0.451097 0.000000 -0.546903
v 0.442766 0.000000 -0.571609
v 0.431444 0.000000 -0.594556
v 0.417332 0.000000 -0.615543
v 0.400625 0.000000 -0.634375
v 0.381523 0.000000 -0.650852
v 0.360222 0.000000 -0.664778
v 0.336922 0.000000 -0.675953
v 0.311819 0.000000 -0.684181
v 0.285113 0.000000 -0.689262
v 0.257000 0.000000 -0.691000
v 0.227889 0.000000 -0.689282
v 0.200199 0.000000 -0.684259
v 0.174141 0.000000 -0.676125
v 0.149926 0.000000 -0.665074
v 0.127767 0.000000 -0.651301
v 0.107875 0.000000 -0.635000
v 0.090462 0.000000 -0.616366
v 0.075741 0.000000 -0.595593
v 0.063922 0.000000 -0.572875
v 0.055218 0.000000 -0.548407
v 0.049840 0.000000 -0.522384
v 0.048000 0.000000 -0.495000
v 0.048620 0.000000 -0.480630
v 0.050458 0.000000 -0.466542
v 0.053484 0.000000 -0.452766
v 0.057667 0.000000 -0.439333
v 0.062974 0.000000 -0.426276
v 0.069375 0.000000 -0.413625
v 0.076839 0.000000 -0.401412
v 0.085333 0.000000 -0.389667
v 0.094828 0.000000 -0.378422
v 0.105292 0.000000 -0.367708
v 0.116693 0.000000 -0.357557
v 0.129000 0.000000 -0.348000
v 0.113437 0.000000 -0.338185
v 0.099245 0.000000 -0.327731
v 0.086422 0.000000 -0.316625
v 0.074963 0.000000 -0.304852
v 0.064865 0.000000 -0.292398
v 0.056125 0.000000 -0.279250
v 0.048739 0.000000 -0.265394
v 0.042704 0.000000 -0.250815
v 0.038016 0.000000 -0.235500
v 0.034671 0.000000 -0.219435
v 0.032667 0.000000 -0.202606
v 0.032000 0.000000 -0.185000
v 0.033961 0.000000 -0.158285
v 0.039685 0.000000 -0.132782
v 0.048937 0.000000 -0.108703
v 0.061481 0.000000 -0.086259
v 0.077081 0.000000 -0.065663
v 0.095500 0.000000 -0.047125
v 0.116502 0.000000 -0.030858
v 0.139852 0.000000 -0.017074
v 0.165312 0.000000 -0.005984
v 0.192648 0.000000 0.002199
v 0.221623 0.000000 0.007264
v 0.252000 0.000000 0.009000
v 0.281878 0.000000 0.007284
v 0.310361 0.000000 0.002273
v 0.337219 0.000000 -0.005828
v 0.362222 0.000000 -0.016815
v 0.385142 0.000000 -0.030482
v 0.405750 0.000000 -0.046625
v 0.423816 0.000000 -0.065039
v 0.439111 0.000000 -0.085519
v 0.451406 0.000000 -0.107859
v 0.460472 0.000000 -0.131857
v 0.466080 0.000000 -0.157305
v 0.360000 0.000000 -0.495000
v 0.359021 0.000000 -0.481439
v 0.356171 0.000000 -0.468347
v 0.351578 0.000000 -0.455859
v 0.345370 0.000000 -0.444111
v 0.337677 0.000000 -0.433238
v 0.328625 0.000000 -0.423375
v 0.318344 0.000000 -0.414658
v 0.306963 0.000000 -0.407222
v 0.294609 0.000000 -0.401203
v 0.281412 0.000000 -0.396736
v 0.267499 0.000000 -0.393957
v 0.253000 0.000000 -0.393000
v 0.238711 0.000000 -0.393977
v 0.224935 0.000000 -0.396815
v 0.211813 0.000000 -0.401375
v 0.199481 0.000000 -0.407519
v 0.188081 0.000000 -0.415106
v 0.177750 0.000000 -0.424000
v 0.168627 0.000000 -0.434060
v 0.160852 0.000000 -0.445148
v 0.154563 0.000000 -0.457125
v 0.149898 0.000000 -0.469852
v 0.146998 0.000000 -0.483190
v 0.146000 0.000000 -0.497000
v 0.146903 0.000000 -0.511802
v 0.149560 0.000000 -0.525662
v 0.153891 0.000000 -0.538516
v 0.159815 0.000000 -0.550296
v 0.167253 0.000000 -0.560938
v 0.176125 0.000000 -0.570375
v 0.186351 0.000000 -0.578541
v 0.197852 0.000000 -0.585370
v 0.210547 0.000000 -0.590797
v 0.224357 0.000000 -0.594755
v 0.239201 0.000000 -0.597178
v 0.255000 0.000000 -0.598000
v 0.269880 0.000000 -0.597100
v 0.283958 0.000000 -0.594468
v 0.297141 0.000000 -0.590203
v 0.309333 0.000000 -0.584407
v 0.320443 0.000000 -0.577181
v 0.330375 0.000000 -0.568625
v 0.339036 0.000000 -0.558840
v 0.346333 0.000000 -0.547926
v 0.352172 0.000000 -0.535984
v 0.356458 0.000000 -0.523116
v 0.359099 0.000000 -0.509421
v 0.370000 0.000000 -0.192000
v 0.369148 0.000000 -0.177901
v 0.366597 0.000000 -0.164208
v 0.362359 0.000000 -0.151078
v 0.356444 0.000000 -0.138667
v 0.348863 0.000000 -0.127130
v 0.339625 0.000000 -0.116625
v 0.328741 0.000000 -0.107307
v 0.316222 0.000000 -0.099333
v 0.302078 0.000000 -0.092859
v 0.286319 0.000000 -0.088042
v 0.268957 0.000000 -0.085036
v 0.250000 0.000000 -0.084000
v 0.232934 0.000000 -0.084922
v 0.216806 0.000000 -0.087625
v 0.201719 0.000000 -0.092016
v 0.187778 0.000000 -0.098000
v 0.175087 0.000000 -0.105484
v 0.163750 0.000000 -0.114375
v 0.153872 0.000000 -0.124578
v 0.145556 0.000000 -0.136000
v 0.138906 0.000000 -0.148547
v 0.134028 0.000000 -0.162125
v 0.131024 0.000000 -0.176641
v 0.130000 0.000000 -0.192000
v 0.130987 0.000000 -0.207569
v 0.133898 0.000000 -0.222222
v 0.138656 0.000000 -0.235875
v 0.145185 0.000000 -0.248444
v 0.153409 0.000000 -0.259847
v 0.163250 0.000000 -0.270000
v 0.174633 0.000000 -0.278819
v 0.187481 0.000000 -0.286222
v 0.201719 0.000000 -0.292125
v 0.217269 0.000000 -0.296444
v 0.234054 0.000000 -0.299097
v 0.252000 0.000000 -0.300000
v 0.268817 0.000000 -0.299059
v 0.284699 0.000000 -0.296306
v 0.299547 0.000000 -0.291844
v 0.313259 0.000000 -0.285778
v 0.325736 0.000000 -0.278212
v 0.336875 0.000000 -0.269250
v 0.346577 0.000000 -0.258997
v 0.354741 0.000000 -0.247556
v 0.361266 0.000000 -0.235031
v 0.366051 0.000000 -0.221528
v 0.368996 0.000000 -0.207149
vt 0.193717 0.000000
vt 0.183246 0.000000
vt 0.188482 0.000000
vt 0.198953 0.000000
vt 0.178010 0.000000
vt 0.204188 0.000000
vt 0.172775 0.000000
vt 0.209424 0.000000
vt 0.167539 0.000000
vt 0.214660 0.000000
vt 0.162304 0.000000
vt 0.219895 0.000000
vt 0.157068 0.000000
vt 0.225131 0.000000
vt 0.151832 0.000000
vt 0.230366 0.000000
vt 0.691099 0.000000
vt 0.146597 0.000000
vt 0.685864 0.000000
vt 0.696335 0.000000
vt 0.680628 0.000000
vt 0.701571 0.000000
vt 0.235602 0.000000
vt 0.675393 0.000000
vt 0.141361 0.000000
vt 0.706806 0.000000
vt 0.670157 0.000000
vt 0.712042 0.000000
vt 0.664921 0.000000
vt 0.717277 0.000000
vt 0.659686 0.000000
vt 0.722513 0.000000
vt 0.240838 0.000000
vt 0.136126 0.000000
vt 0.654450 0.000000
vt 0.727749 0.000000
vt 0.649215 0.000000
vt 0.732984 0.000000
vt 0.643979 0.000000
vt 0.246073 0.000000
vt 0.738220 0.000000
vt 0.130890 0.000000
vt 0.638743 0.000000
vt 0.743455 0.000000
vt 0.633508 0.000000
vt 0.748691 0.000000
vt 0.251309 0.000000
vt 0.125654 0.000000
vt 0.628272 0.000000
vt 0.502618 0.000000
vt 0.623037 0.000000
vt 0.256545 0.000000
vt 0.507853 0.000000
vt 0.120419 0.000000
vt 0.617801 0.000000
vt 0.513089 0.000000
vt 0.261780 0.000000
vt 0.115183 0.000000
vt 0.612565 0.000000
vt 0.518325 0.000000
vt 0.109948 0.000000
vt 0.267016 0.000000
vt 0.607330 0.000000
vt 0.523560 0.000000
vt 0.104712 0.000000
vt 0.272251 0.000000
vt 0.602094 0.000000
vt 0.528796 0.000000
vt 0.099476 0.000000
vt 0.277487 0.000000
vt 0.596859 0.000000
vt 0.534031 0.000000
vt 0.094241 0.000000
vt 0.282723 0.000000
vt 0.591623 0.000000
vt 0.539267 0.000000
vt 0.089005 0.000000
vt 0.586387 0.000000
vt 0.544503 0.000000
vt 0.287958 0.000000
vt 0.581152 0.000000
vt 0.549738 0.000000
vt 0.083770 0.000000
vt 0.293194 0.000000
vt 0.575916 0.000000
vt 0.554974 0.000000
vt 0.570681 0.000000
vt 0.560209 0.000000
vt 0.565445 0.000000
vt 0.078534 0.000000
vt 0.298429 0.000000
vt 0.073298 0.000000
vt 0.303665 0.000000
vt 0.068063 0.000000
vt 0.308901 0.000000
vt 0.062827 0.000000
vt 0.314136 0.000000
vt 0.319372 0.000000
vt 0.057592 0.000000
vt 0.052356 0.000000
vt 0.324607 0.000000
vt 0.047120 0.000000
vt 0.329843 0.000000
vt 0.041885 0.000000
vt 0.335079 0.000000
vt 0.942408 0.000000
vt 0.036649 0.000000
vt 0.340314 0.000000
vt 0.937173 0.000000
vt 0.947644 0.000000
vt 0.931937 0.000000
vt 0.952880 0.000000
vt 0.926702 0.000000
vt 0.958115 0.000000
vt 0.031414 0.000000
vt 0.345550 0.000000
vt 0.921466 0.000000
vt 0.963351 0.000000
vt 0.916230 0.000000
vt 0.968586 0.000000
vt 0.026178 0.000000
vt 0.350785 0.000000
vt 0.910995 0.000000
vt 0.973822 0.000000
vt 0.905759 0.000000
vt 0.979058 0.000000
vt 0.356021 0.000000
vt 0.020942 0.000000
vt 0.900524 0.000000
vt 0.984293 0.000000
vt 0.361257 0.000000
vt 0.015707 0.000000
vt 0.895288 0.000000
vt 0.989529 0.000000
vt 0.890052 0.000000
vt 0.366492 0.000000
vt 0.994764 0.000000
vt 0.010471 0.000000
vt 0.884817 0.000000
vt 1.000000 0.000000
vt 0.371728 0.000000
vt 0.005236 0.000000
vt 0.879581 0.000000
vt 0.753927 0.000000
vt 0.376963 0.000000
vt 0.000000 0.000000
vt 0.874346 0.000000
vt 0.759162 0.000000
vt 0.382199 0.000000
vt 0.497382 0.000000
vt 0.764398 0.000000
vt 0.869110 0.000000
vt 0.769634 0.000000
vt 0.863874 0.000000
vt 0.387435 0.000000
vt 0.492147 0.000000
vt 0.774869 0.000000
vt 0.858639 0.000000
vt 0.780105 0.000000
vt 0.853403 0.000000
vt 0.392670 0.000000
vt 0.486911 0.000000
vt 0.785340 0.000000
vt 0.848168 0.000000
vt 0.790576 0.000000
vt 0.842932 0.000000
vt 0.397906 0.000000
vt 0.481675 0.000000
vt 0.795812 0.000000
vt 0.837696 0.000000
vt 0.801047 0.000000
vt 0.832461 0.000000
vt 0.806283 0.000000
vt 0.827225 0.000000
vt 0.811518 0.000000
vt 0.821990 0.000000
vt 0.403141 0.000000
vt 0.476440 0.000000
vt 0.816754 0.000000
vt 0.408377 0.000000
vt 0.471204 0.000000
vt 0.413613 0.000000
vt 0.465969 0.000000
vt 0.418848 0.000000
vt 0.460733 0.000000
vt 0.424084 0.000000
vt 0.455497 0.000000
vt 0.429319 0.000000
vt 0.450262 0.000000
vt 0.434555 0.000000
vt 0.445026 0.000000
vt 0.439791 0.000000
vn 0.0000 1.0000 0.0000
g Text_Text_Material.001
usemtl Material.001
s off
f 38/1/1 36/2/1 37/3/1
f 39/4/1 36/2/1 38/1/1
f 39/4/1 35/5/1 36/2/1
f 40/6/1 35/5/1 39/4/1
f 40/6/1 34/7/1 35/5/1
f 41/8/1 34/7/1 40/6/1
f 41/8/1 33/9/1 34/7/1
f 42/10/1 33/9/1 41/8/1
f 42/10/1 32/11/1 33/9/1
f 43/12/1 32/11/1 42/10/1
f 43/12/1 31/13/1 32/11/1
f 44/14/1 31/13/1 43/12/1
f 44/14/1 30/15/1 31/13/1
f 45/16/1 30/15/1 44/14/1
f 45/16/1 133/17/1 30/15/1
f 133/17/1 29/18/1 30/15/1
f 45/16/1 132/19/1 133/17/1
f 134/20/1 29/18/1 133/17/1
f 45/16/1 131/21/1 132/19/1
f 135/22/1 29/18/1 134/20/1
f 46/23/1 131/21/1 45/16/1
f 46/23/1 130/24/1 131/21/1
f 135/22/1 28/25/1 29/18/1
f 136/26/1 28/25/1 135/22/1
f 46/23/1 129/27/1 130/24/1
f 137/28/1 28/25/1 136/26/1
f 46/23/1 128/29/1 129/27/1
f 138/30/1 28/25/1 137/28/1
f 46/23/1 127/31/1 128/29/1
f 139/32/1 28/25/1 138/30/1
f 47/33/1 127/31/1 46/23/1
f 139/32/1 27/34/1 28/25/1
f 47/33/1 126/35/1 127/31/1
f 140/36/1 27/34/1 139/32/1
f 47/33/1 125/37/1 126/35/1
f 141/38/1 27/34/1 140/36/1
f 47/33/1 124/39/1 125/37/1
f 48/40/1 124/39/1 47/33/1
f 142/41/1 27/34/1 141/38/1
f 142/41/1 26/42/1 27/34/1
f 48/40/1 123/43/1 124/39/1
f 143/44/1 26/42/1 142/41/1
f 48/40/1 122/45/1 123/43/1
f 144/46/1 26/42/1 143/44/1
f 49/47/1 122/45/1 48/40/1
f 144/46/1 25/48/1 26/42/1
f 49/47/1 121/49/1 122/45/1
f 97/50/1 25/48/1 144/46/1
f 49/47/1 120/51/1 121/49/1
f 50/52/1 120/51/1 49/47/1
f 98/53/1 25/48/1 97/50/1
f 98/53/1 24/54/1 25/48/1
f 50/52/1 119/55/1 120/51/1
f 99/56/1 24/54/1 98/53/1
f 51/57/1 119/55/1 50/52/1
f 99/56/1 23/58/1 24/54/1
f 51/57/1 118/59/1 119/55/1
f 100/60/1 23/58/1 99/56/1
f 100/60/1 22/61/1 23/58/1
f 52/62/1 118/59/1 51/57/1
f 52/62/1 117/63/1 118/59/1
f 101/64/1 22/61/1 100/60/1
f 101/64/1 21/65/1 22/61/1
f 53/66/1 117/63/1 52/62/1
f 53/66/1 116/67/1 117/63/1
f 102/68/1 21/65/1 101/64/1
f 102/68/1 20/69/1 21/65/1
f 54/70/1 116/67/1 53/66/1
f 54/70/1 115/71/1 116/67/1
f 103/72/1 20/69/1 102/68/1
f 103/72/1 19/73/1 20/69/1
f 55/74/1 115/71/1 54/70/1
f 55/74/1 114/75/1 115/71/1
f 104/76/1 19/73/1 103/72/1
f 104/76/1 18/77/1 19/73/1
f 55/74/1 113/78/1 114/75/1
f 105/79/1 18/77/1 104/76/1
f 56/80/1 113/78/1 55/74/1
f 56/80/1 112/81/1 113/78/1
f 106/82/1 18/77/1 105/79/1
f 106/82/1 17/83/1 18/77/1
f 57/84/1 112/81/1 56/80/1
f 57/84/1 111/85/1 112/81/1
f 107/86/1 17/83/1 106/82/1
f 57/84/1 110/87/1 111/85/1
f 108/88/1 17/83/1 107/86/1
f 57/84/1 109/89/1 110/87/1
f 109/89/1 17/83/1 108/88/1
f 57/84/1 17/83/1 109/89/1
f 57/84/1 16/90/1 17/83/1
f 58/91/1 16/90/1 57/84/1
f 58/91/1 15/92/1 16/90/1
f 59/93/1 15/92/1 58/91/1
f 59/93/1 14/94/1 15/92/1
f 60/95/1 14/94/1 59/93/1
f 60/95/1 13/96/1 14/94/1
f 61/97/1 13/96/1 60/95/1
f 62/98/1 13/96/1 61/97/1
f 62/98/1 12/99/1 13/96/1
f 62/98/1 11/100/1 12/99/1
f 63/101/1 11/100/1 62/98/1
f 63/101/1 10/102/1 11/100/1
f 64/103/1 10/102/1 63/101/1
f 64/103/1 9/104/1 10/102/1
f 65/105/1 9/104/1 64/103/1
f 65/105/1 181/106/1 9/104/1
f 181/106/1 8/107/1 9/104/1
f 66/108/1 181/106/1 65/105/1
f 66/108/1 180/109/1 181/106/1
f 182/110/1 8/107/1 181/106/1
f 66/108/1 179/111/1 180/109/1
f 183/112/1 8/107/1 182/110/1
f 66/108/1 178/113/1 179/111/1
f 184/114/1 8/107/1 183/112/1
f 184/114/1 7/115/1 8/107/1
f 67/116/1 178/113/1 66/108/1
f 67/116/1 177/117/1 178/113/1
f 185/118/1 7/115/1 184/114/1
f 67/116/1 176/119/1 177/117/1
f 186/120/1 7/115/1 185/118/1
f 186/120/1 6/121/1 7/115/1
f 68/122/1 176/119/1 67/116/1
f 68/122/1 175/123/1 176/119/1
f 187/124/1 6/121/1 186/120/1
f 68/122/1 174/125/1 175/123/1
f 188/126/1 6/121/1 187/124/1
f 69/127/1 174/125/1 68/122/1
f 188/126/1 5/128/1 6/121/1
f 69/127/1 173/129/1 174/125/1
f 189/130/1 5/128/1 188/126/1
f 70/131/1 173/129/1 69/127/1
f 189/130/1 4/132/1 5/128/1
f 70/131/1 172/133/1 173/129/1
f 190/134/1 4/132/1 189/130/1
f 70/131/1 171/135/1 172/133/1
f 71/136/1 171/135/1 70/131/1
f 191/137/1 4/132/1 190/134/1
f 191/137/1 3/138/1 4/132/1
f 71/136/1 170/139/1 171/135/1
f 192/140/1 3/138/1 191/137/1
f 72/141/1 170/139/1 71/136/1
f 192/140/1 2/142/1 3/138/1
f 72/141/1 169/143/1 170/139/1
f 145/144/1 2/142/1 192/140/1
f 73/145/1 169/143/1 72/141/1
f 145/144/1 1/146/1 2/142/1
f 73/145/1 168/147/1 169/143/1
f 146/148/1 1/146/1 145/144/1
f 74/149/1 168/147/1 73/145/1
f 146/148/1 96/150/1 1/146/1
f 147/151/1 96/150/1 146/148/1
f 74/149/1 167/152/1 168/147/1
f 148/153/1 96/150/1 147/151/1
f 74/149/1 166/154/1 167/152/1
f 75/155/1 166/154/1 74/149/1
f 148/153/1 95/156/1 96/150/1
f 149/157/1 95/156/1 148/153/1
f 75/155/1 165/158/1 166/154/1
f 150/159/1 95/156/1 149/157/1
f 75/155/1 164/160/1 165/158/1
f 76/161/1 164/160/1 75/155/1
f 150/159/1 94/162/1 95/156/1
f 151/163/1 94/162/1 150/159/1
f 76/161/1 163/164/1 164/160/1
f 152/165/1 94/162/1 151/163/1
f 76/161/1 162/166/1 163/164/1
f 77/167/1 162/166/1 76/161/1
f 152/165/1 93/168/1 94/162/1
f 153/169/1 93/168/1 152/165/1
f 77/167/1 161/170/1 162/166/1
f 154/171/1 93/168/1 153/169/1
f 77/167/1 160/172/1 161/170/1
f 155/173/1 93/168/1 154/171/1
f 77/167/1 159/174/1 160/172/1
f 156/175/1 93/168/1 155/173/1
f 77/167/1 158/176/1 159/174/1
f 78/177/1 158/176/1 77/167/1
f 156/175/1 92/178/1 93/168/1
f 157/179/1 92/178/1 156/175/1
f 78/177/1 157/179/1 158/176/1
f 78/177/1 92/178/1 157/179/1
f 79/180/1 92/178/1 78/177/1
f 79/180/1 91/181/1 92/178/1
f 80/182/1 91/181/1 79/180/1
f 80/182/1 90/183/1 91/181/1
f 81/184/1 90/183/1 80/182/1
f 81/184/1 89/185/1 90/183/1
f 82/186/1 89/185/1 81/184/1
f 82/186/1 88/187/1 89/185/1
f 83/188/1 88/187/1 82/186/1
f 83/188/1 87/189/1 88/187/1
f 84/190/1 87/189/1 83/188/1
f 84/190/1 86/191/1 87/189/1
f 85/192/1 86/191/1 84/190/1
