# Blender v2.83.0 OBJ File: ''
# www.blender.org
mtllib n4.mtl
o Text
v 0.398000 0.000000 -0.691000
v 0.356000 0.000000 -0.691000
v 0.011000 0.000000 -0.269000
v 0.011000 0.000000 -0.224000
v 0.300000 0.000000 -0.224000
v 0.300000 0.000000 0.000000
v 0.398000 0.000000 0.000000
v 0.398000 0.000000 -0.224000
v 0.471000 0.000000 -0.224000
v 0.471000 0.000000 -0.312000
v 0.398000 0.000000 -0.312000
v 0.298000 0.000000 -0.506000
v 0.300000 0.000000 -0.506000
v 0.300000 0.000000 -0.312000
v 0.142000 0.000000 -0.312000
vt 0.142857 0.000000
vt 0.000000 0.000000
vt 0.071429 0.000000
vt 0.785714 0.000000
vt 0.857143 0.000000
vt 0.714286 0.000000
vt 1.000000 0.000000
vt 0.928571 0.000000
vt 0.642857 0.000000
vt 0.571429 0.000000
vt 0.214286 0.000000
vt 0.285714 0.000000
vt 0.357143 0.000000
vt 0.500000 0.000000
vt 0.428571 0.000000
vn 0.0000 1.0000 0.0000
vn 0.0000 0.0000 1.0000
g Text_Text_Material.001
usemtl Material.001
s off
f 3/1/1 1/2/1 2/3/1
f 3/1/1 12/4/1 1/2/1
f 12/4/1 13/5/1 1/2/1
f 13/5/1 11/6/1 1/2/1
f 3/1/1 15/7/1 12/4/1
f 14/8/1 11/6/1 13/5/1
f 3/1/1 14/8/1 15/7/1
f 3/1/1 11/6/1 14/8/1
f 3/1/1 10/9/1 11/6/1
f 3/1/1 9/10/1 10/9/1
f 4/11/1 9/10/1 3/1/1
f 5/12/2 9/10/2 4/11/2
f 6/13/1 8/14/1 5/12/1
f 8/14/2 9/10/2 5/12/2
f 6/13/1 7/15/1 8/14/1
