# Blender v2.83.0 OBJ File: ''
# www.blender.org
mtllib n9.mtl
o Text
v 0.187000 0.000000 0.009000
v 0.226002 0.000000 -0.017310
v 0.262852 0.000000 -0.046977
v 0.297313 0.000000 -0.079609
v 0.329148 0.000000 -0.114815
v 0.358123 0.000000 -0.152201
v 0.384000 0.000000 -0.191375
v 0.406544 0.000000 -0.231945
v 0.425519 0.000000 -0.273519
v 0.440688 0.000000 -0.315703
v 0.451815 0.000000 -0.358107
v 0.458664 0.000000 -0.400336
v 0.461000 0.000000 -0.442000
v 0.459137 0.000000 -0.476939
v 0.453676 0.000000 -0.510097
v 0.444813 0.000000 -0.541234
v 0.432741 0.000000 -0.570111
v 0.417655 0.000000 -0.596488
v 0.399750 0.000000 -0.620125
v 0.379220 0.000000 -0.640783
v 0.356259 0.000000 -0.658222
v 0.331063 0.000000 -0.672203
v 0.303824 0.000000 -0.682486
v 0.274738 0.000000 -0.688832
v 0.244000 0.000000 -0.691000
v 0.213439 0.000000 -0.688954
v 0.184843 0.000000 -0.683051
v 0.158344 0.000000 -0.673641
v 0.134074 0.000000 -0.661074
v 0.112166 0.000000 -0.645702
v 0.092750 0.000000 -0.627875
v 0.075959 0.000000 -0.607944
v 0.061926 0.000000 -0.586259
v 0.050781 0.000000 -0.563172
v 0.042657 0.000000 -0.539032
v 0.037686 0.000000 -0.514192
v 0.036000 0.000000 -0.489000
v 0.037735 0.000000 -0.461767
v 0.042796 0.000000 -0.435718
v 0.050969 0.000000 -0.411078
v 0.062037 0.000000 -0.388074
v 0.075786 0.000000 -0.366931
v 0.092000 0.000000 -0.347875
v 0.110464 0.000000 -0.331131
v 0.130963 0.000000 -0.316926
v 0.153281 0.000000 -0.305484
v 0.177204 0.000000 -0.297032
v 0.202515 0.000000 -0.291796
v 0.229000 0.000000 -0.290000
v 0.238075 0.000000 -0.290227
v 0.247269 0.000000 -0.290898
v 0.256531 0.000000 -0.292000
v 0.265815 0.000000 -0.293519
v 0.275071 0.000000 -0.295440
v 0.284250 0.000000 -0.297750
v 0.293304 0.000000 -0.300435
v 0.302185 0.000000 -0.303482
v 0.310844 0.000000 -0.306875
v 0.319232 0.000000 -0.310602
v 0.327300 0.000000 -0.314648
v 0.335000 0.000000 -0.319000
v 0.329112 0.000000 -0.297329
v 0.320982 0.000000 -0.275384
v 0.310656 0.000000 -0.253266
v 0.298185 0.000000 -0.231074
v 0.283617 0.000000 -0.208910
v 0.267000 0.000000 -0.186875
v 0.248383 0.000000 -0.165069
v 0.227815 0.000000 -0.143593
v 0.205344 0.000000 -0.122547
v 0.181019 0.000000 -0.102032
v 0.154888 0.000000 -0.082150
v 0.127000 0.000000 -0.063000
v 0.134000 0.000000 -0.490000
v 0.134962 0.000000 -0.505359
v 0.137782 0.000000 -0.519875
v 0.142359 0.000000 -0.533453
v 0.148593 0.000000 -0.546000
v 0.156381 0.000000 -0.557422
v 0.165625 0.000000 -0.567625
v 0.176223 0.000000 -0.576516
v 0.188074 0.000000 -0.584000
v 0.201078 0.000000 -0.589984
v 0.215134 0.000000 -0.594375
v 0.230142 0.000000 -0.597078
v 0.246000 0.000000 -0.598000
v 0.261477 0.000000 -0.596840
v 0.276319 0.000000 -0.593472
v 0.290391 0.000000 -0.588063
v 0.303556 0.000000 -0.580778
v 0.315679 0.000000 -0.571785
v 0.326625 0.000000 -0.561250
v 0.336259 0.000000 -0.549340
v 0.344444 0.000000 -0.536222
v 0.351047 0.000000 -0.522062
v 0.355931 0.000000 -0.507028
v 0.358960 0.000000 -0.491285
v 0.360000 0.000000 -0.475000
v 0.359997 0.000000 -0.470805
v 0.359977 0.000000 -0.466690
v 0.359922 0.000000 -0.462609
v 0.359815 0.000000 -0.458519
v 0.359638 0.000000 -0.454372
v 0.359375 0.000000 -0.450125
v 0.359008 0.000000 -0.445732
v 0.358519 0.000000 -0.441148
v 0.357891 0.000000 -0.436328
v 0.357107 0.000000 -0.431227
v 0.356149 0.000000 -0.425799
v 0.355000 0.000000 -0.420000
v 0.345715 0.000000 -0.413810
v 0.336389 0.000000 -0.408231
v 0.327062 0.000000 -0.403250
v 0.317778 0.000000 -0.398852
v 0.308576 0.000000 -0.395023
v 0.299500 0.000000 -0.391750
v 0.290590 0.000000 -0.389019
v 0.281889 0.000000 -0.386815
v 0.273437 0.000000 -0.385125
v 0.265278 0.000000 -0.383935
v 0.257451 0.000000 -0.383231
v 0.250000 0.000000 -0.383000
v 0.234273 0.000000 -0.383979
v 0.219185 0.000000 -0.386829
v 0.204875 0.000000 -0.391422
v 0.191481 0.000000 -0.397630
v 0.179144 0.000000 -0.405324
v 0.168000 0.000000 -0.414375
v 0.158190 0.000000 -0.424656
v 0.149852 0.000000 -0.436037
v 0.143125 0.000000 -0.448391
v 0.138148 0.000000 -0.461588
v 0.135060 0.000000 -0.475501
vt 0.189394 0.000000
vt 0.174242 0.000000
vt 0.181818 0.000000
vt 0.196970 0.000000
vt 0.166667 0.000000
vt 0.204545 0.000000
vt 0.159091 0.000000
vt 0.212121 0.000000
vt 0.151515 0.000000
vt 0.219697 0.000000
vt 0.143939 0.000000
vt 0.227273 0.000000
vt 0.136364 0.000000
vt 0.234848 0.000000
vt 0.128788 0.000000
vt 0.242424 0.000000
vt 0.636364 0.000000
vt 0.643939 0.000000
vt 0.651515 0.000000
vt 0.628788 0.000000
vt 0.659091 0.000000
vt 0.121212 0.000000
vt 0.621212 0.000000
vt 0.666667 0.000000
vt 0.613636 0.000000
vt 0.674242 0.000000
vt 0.250000 0.000000
vt 0.606061 0.000000
vt 0.681818 0.000000
vt 0.598485 0.000000
vt 0.689394 0.000000
vt 0.113636 0.000000
vt 0.590909 0.000000
vt 0.257576 0.000000
vt 0.696970 0.000000
vt 0.583333 0.000000
vt 0.704545 0.000000
vt 0.575758 0.000000
vt 0.106061 0.000000
vt 0.265152 0.000000
vt 0.712121 0.000000
vt 0.568182 0.000000
vt 0.719697 0.000000
vt 0.560606 0.000000
vt 0.272727 0.000000
vt 0.098485 0.000000
vt 0.727273 0.000000
vt 0.553030 0.000000
vt 0.734848 0.000000
vt 1.000000 0.000000
vt 0.280303 0.000000
vt 0.090909 0.000000
vt 0.992424 0.000000
vt 0.742424 0.000000
vt 0.750000 0.000000
vt 0.757576 0.000000
vt 0.765152 0.000000
vt 0.287879 0.000000
vt 0.984848 0.000000
vt 0.772727 0.000000
vt 0.780303 0.000000
vt 0.787879 0.000000
vt 0.977273 0.000000
vt 0.795455 0.000000
vt 0.083333 0.000000
vt 0.803030 0.000000
vt 0.810606 0.000000
vt 0.969697 0.000000
vt 0.295455 0.000000
vt 0.818182 0.000000
vt 0.825758 0.000000
vt 0.962121 0.000000
vt 0.833333 0.000000
vt 0.954545 0.000000
vt 0.840909 0.000000
vt 0.303030 0.000000
vt 0.848485 0.000000
vt 0.946970 0.000000
vt 0.856061 0.000000
vt 0.075758 0.000000
vt 0.863636 0.000000
vt 0.939394 0.000000
vt 0.871212 0.000000
vt 0.878788 0.000000
vt 0.931818 0.000000
vt 0.886364 0.000000
vt 0.310606 0.000000
vt 0.924242 0.000000
vt 0.893939 0.000000
vt 0.901515 0.000000
vt 0.916667 0.000000
vt 0.909091 0.000000
vt 0.318182 0.000000
vt 0.068182 0.000000
vt 0.325758 0.000000
vt 0.333333 0.000000
vt 0.454545 0.000000
vt 0.446970 0.000000
vt 0.462121 0.000000
vt 0.340909 0.000000
vt 0.060606 0.000000
vt 0.439394 0.000000
vt 0.431818 0.000000
vt 0.424242 0.000000
vt 0.348485 0.000000
vt 0.416667 0.000000
vt 0.409091 0.000000
vt 0.401515 0.000000
vt 0.469697 0.000000
vt 0.356061 0.000000
vt 0.393939 0.000000
vt 0.386364 0.000000
vt 0.378788 0.000000
vt 0.363636 0.000000
vt 0.371212 0.000000
vt 0.477273 0.000000
vt 0.053030 0.000000
vt 0.484848 0.000000
vt 0.045455 0.000000
vt 0.492424 0.000000
vt 0.500000 0.000000
vt 0.037879 0.000000
vt 0.507576 0.000000
vt 0.515152 0.000000
vt 0.030303 0.000000
vt 0.522727 0.000000
vt 0.530303 0.000000
vt 0.022727 0.000000
vt 0.537879 0.000000
vt 0.545455 0.000000
vt 0.015152 0.000000
vt 0.000000 0.000000
vt 0.007576 0.000000
vn 0.0000 1.0000 0.0000
g Text_Text_Material.001
usemtl Material.001
s off
f 26/1/1 24/2/1 25/3/1
f 27/4/1 24/2/1 26/1/1
f 27/4/1 23/5/1 24/2/1
f 28/6/1 23/5/1 27/4/1
f 28/6/1 22/7/1 23/5/1
f 29/8/1 22/7/1 28/6/1
f 29/8/1 21/9/1 22/7/1
f 30/10/1 21/9/1 29/8/1
f 30/10/1 20/11/1 21/9/1
f 31/12/1 20/11/1 30/10/1
f 31/12/1 19/13/1 20/11/1
f 32/14/1 19/13/1 31/12/1
f 32/14/1 18/15/1 19/13/1
f 33/16/1 85/17/1 32/14/1
f 85/17/1 86/18/1 32/14/1
f 86/18/1 18/15/1 32/14/1
f 87/19/1 18/15/1 86/18/1
f 33/16/1 84/20/1 85/17/1
f 88/21/1 18/15/1 87/19/1
f 88/21/1 17/22/1 18/15/1
f 33/16/1 83/23/1 84/20/1
f 89/24/1 17/22/1 88/21/1
f 33/16/1 82/25/1 83/23/1
f 90/26/1 17/22/1 89/24/1
f 34/27/1 82/25/1 33/16/1
f 34/27/1 81/28/1 82/25/1
f 91/29/1 17/22/1 90/26/1
f 34/27/1 80/30/1 81/28/1
f 92/31/1 17/22/1 91/29/1
f 92/31/1 16/32/1 17/22/1
f 34/27/1 79/33/1 80/30/1
f 35/34/1 79/33/1 34/27/1
f 93/35/1 16/32/1 92/31/1
f 35/34/1 78/36/1 79/33/1
f 94/37/1 16/32/1 93/35/1
f 35/34/1 77/38/1 78/36/1
f 94/37/1 15/39/1 16/32/1
f 36/40/1 77/38/1 35/34/1
f 95/41/1 15/39/1 94/37/1
f 36/40/1 76/42/1 77/38/1
f 96/43/1 15/39/1 95/41/1
f 36/40/1 75/44/1 76/42/1
f 37/45/1 75/44/1 36/40/1
f 96/43/1 14/46/1 15/39/1
f 97/47/1 14/46/1 96/43/1
f 37/45/1 74/48/1 75/44/1
f 98/49/1 14/46/1 97/47/1
f 37/45/1 133/50/1 74/48/1
f 38/51/1 133/50/1 37/45/1
f 98/49/1 13/52/1 14/46/1
f 38/51/1 132/53/1 133/50/1
f 99/54/1 13/52/1 98/49/1
f 100/55/1 13/52/1 99/54/1
f 101/56/1 13/52/1 100/55/1
f 102/57/1 13/52/1 101/56/1
f 39/58/1 132/53/1 38/51/1
f 39/58/1 131/59/1 132/53/1
f 103/60/1 13/52/1 102/57/1
f 104/61/1 13/52/1 103/60/1
f 105/62/1 13/52/1 104/61/1
f 39/58/1 130/63/1 131/59/1
f 106/64/1 13/52/1 105/62/1
f 106/64/1 12/65/1 13/52/1
f 107/66/1 12/65/1 106/64/1
f 108/67/1 12/65/1 107/66/1
f 39/58/1 129/68/1 130/63/1
f 40/69/1 129/68/1 39/58/1
f 109/70/1 12/65/1 108/67/1
f 110/71/1 12/65/1 109/70/1
f 40/69/1 128/72/1 129/68/1
f 111/73/1 12/65/1 110/71/1
f 40/69/1 127/74/1 128/72/1
f 112/75/1 12/65/1 111/73/1
f 41/76/1 127/74/1 40/69/1
f 113/77/1 12/65/1 112/75/1
f 41/76/1 126/78/1 127/74/1
f 114/79/1 12/65/1 113/77/1
f 114/79/1 11/80/1 12/65/1
f 115/81/1 11/80/1 114/79/1
f 41/76/1 125/82/1 126/78/1
f 116/83/1 11/80/1 115/81/1
f 117/84/1 11/80/1 116/83/1
f 41/76/1 124/85/1 125/82/1
f 118/86/1 11/80/1 117/84/1
f 42/87/1 124/85/1 41/76/1
f 42/87/1 123/88/1 124/85/1
f 119/89/1 11/80/1 118/86/1
f 120/90/1 11/80/1 119/89/1
f 42/87/1 122/91/1 123/88/1
f 121/92/1 11/80/1 120/90/1
f 122/91/1 11/80/1 121/92/1
f 42/87/1 11/80/1 122/91/1
f 43/93/1 11/80/1 42/87/1
f 43/93/1 10/94/1 11/80/1
f 44/95/1 10/94/1 43/93/1
f 45/96/1 61/97/1 44/95/1
f 61/97/1 10/94/1 44/95/1
f 45/96/1 60/98/1 61/97/1
f 62/99/1 10/94/1 61/97/1
f 46/100/1 60/98/1 45/96/1
f 62/99/1 9/101/1 10/94/1
f 46/100/1 59/102/1 60/98/1
f 46/100/1 58/103/1 59/102/1
f 46/100/1 57/104/1 58/103/1
f 47/105/1 57/104/1 46/100/1
f 47/105/1 56/106/1 57/104/1
f 47/105/1 55/107/1 56/106/1
f 47/105/1 54/108/1 55/107/1
f 63/109/1 9/101/1 62/99/1
f 48/110/1 54/108/1 47/105/1
f 48/110/1 53/111/1 54/108/1
f 48/110/1 52/112/1 53/111/1
f 48/110/1 51/113/1 52/112/1
f 49/114/1 51/113/1 48/110/1
f 49/114/1 50/115/1 51/113/1
f 64/116/1 9/101/1 63/109/1
f 64/116/1 8/117/1 9/101/1
f 65/118/1 8/117/1 64/116/1
f 65/118/1 7/119/1 8/117/1
f 66/120/1 7/119/1 65/118/1
f 67/121/1 7/119/1 66/120/1
f 67/121/1 6/122/1 7/119/1
f 68/123/1 6/122/1 67/121/1
f 69/124/1 6/122/1 68/123/1
f 69/124/1 5/125/1 6/122/1
f 70/126/1 5/125/1 69/124/1
f 71/127/1 5/125/1 70/126/1
f 71/127/1 4/128/1 5/125/1
f 72/129/1 4/128/1 71/127/1
f 73/130/1 4/128/1 72/129/1
f 73/130/1 3/131/1 4/128/1
f 1/132/1 3/131/1 73/130/1
f 1/132/1 2/133/1 3/131/1
